# xmcd
# 
# Track frame offsets:
#     150
#     17600
#     36449
#     53710
#     74957
# 
# Disc length: 1266
# 
# Revision: 0
# Processed by: cddbd v1.5.2PL0 Copyright (c) Steve Scherf et al.
# Submitted via: BonkEnc v1.0.8
# 
DISCID=4504f005
DTITLE=The Vow - Throwing the Maps - EP
DYEAR=2007
DGENRE=Christian Rock
TTITLE0=Throw the Maps
TTITLE1=Vagabond
TTITLE2=Stars
TTITLE3=She's Only Sleeping
TTITLE4=Erasing Memory
EXTD=
EXTT0=
EXTT1=
EXTT2=
EXTT3=
EXTT4=
PLAYORDER=
